<?xml version="1.0"?>
<svg id="Layer_1" data-name="Layer 1" xmlns="http://www.w3.org/2000/svg" viewBox="0 0 250 250" fill="#005C58">
  <defs>
    
  </defs>
  <g>
    <path class="cls-3" d="M104.22,82.51h23.52v22.02h-18.97c-2.51,0-4.55-2.07-4.55-4.62v-17.4Z"></path>
    <path class="cls-3" d="M156.46,75.76v1.05h-23.1v-25.25c12.82.42,23.1,11.09,23.1,24.2Z"></path>
    <path class="cls-3" d="M133.36,82.51h23.1v17.4c0,2.55-2.04,4.62-4.55,4.62h-18.55v-22.02Z"></path>
    <path class="cls-3" d="M127.74,51.55v25.26h-23.52v-1.31c0-13.2,10.52-23.9,23.52-23.95Z"></path>
  </g>
  <g>
    <path class="cls-3" d="M177.81,134.89c.93-1.79,2-3.25,3.19-4.41,1.19-1.15,2.45-2.03,3.78-2.61,1.32-.59,2.67-.87,4.04-.85,1.37.02,2.7.33,3.97.93,3.43,1.61,5.72,5.01,6.88,10.2l1.93,8.57,5.89-11.27c.46-.02,1.01.02,1.65.11.65.09,1.29.29,1.95.59,1.18.55,1.89,1.2,2.13,1.94.24.74.15,1.52-.27,2.33l-8.52,16.3c-.85.46-1.76.7-2.73.73-.97.03-1.98-.2-3.03-.69-1.11-.52-1.94-1.18-2.47-1.98-.54-.8-.9-1.57-1.08-2.32l-2.4-9.2c-.29-1.15-.59-2.13-.88-2.93-.29-.8-.58-1.47-.87-2.02-.29-.54-.59-.98-.91-1.3-.32-.33-.66-.57-1.02-.74-.91-.43-1.83-.38-2.76.14-.92.52-1.68,1.35-2.27,2.47-.65,1.25-1.03,2.47-1.14,3.65-.11,1.18-.1,2.2.01,3.08-.67.35-1.39.56-2.16.62-.77.07-1.54-.08-2.33-.45-1.7-.8-2.56-2.16-2.6-4.09-.03-1.93.63-4.19,1.99-6.79Z"></path>
    <path class="cls-3" d="M214.35,102.22c2.52,1.18,4.59,2.55,6.22,4.1,1.63,1.55,2.82,3.19,3.56,4.92.74,1.73,1.05,3.54.93,5.41-.12,1.87-.66,3.72-1.61,5.53-.97,1.85-2.2,3.39-3.69,4.61-1.5,1.23-3.2,2.09-5.1,2.58-1.9.49-4,.58-6.27.27-2.28-.31-4.68-1.06-7.19-2.24-2.52-1.18-4.59-2.54-6.21-4.06-1.62-1.52-2.81-3.15-3.55-4.89-.74-1.73-1.05-3.54-.93-5.41.12-1.87.67-3.73,1.63-5.58.95-1.82,2.17-3.34,3.67-4.57,1.5-1.23,3.2-2.09,5.1-2.58,1.9-.49,3.99-.59,6.26-.3,2.27.29,4.66,1.02,7.18,2.21ZM210.15,110.25c-2.87-1.35-5.3-2-7.29-1.94-1.99.06-3.36.83-4.13,2.3-.77,1.47-.57,2.96.6,4.47,1.17,1.51,3.19,2.93,6.06,4.29,2.88,1.35,5.3,2.02,7.29,2,1.99-.02,3.36-.77,4.13-2.24.77-1.47.57-2.98-.6-4.52-1.17-1.54-3.19-2.99-6.06-4.34Z"></path>
    <path class="cls-3" d="M210.52,74.03c.64-.36,1.39-.61,2.24-.73.86-.12,1.76.04,2.71.48.52.25,1.03.54,1.52.89.49.35.94.75,1.35,1.22l17.98,20.63c-.2.45-.4.88-.6,1.27-.2.39-.4.76-.58,1.1-.74,1.41-1.61,2.42-2.62,3.04-1.01.62-2.21.6-3.58-.04-.69-.32-1.35-.83-1.98-1.52-.64-.69-1.37-1.56-2.2-2.62l-11.07-13.75-6.01,11.51c-.46.02-1.03-.02-1.72-.1-.69-.09-1.36-.29-2.01-.59-1.24-.58-1.98-1.26-2.23-2.04-.24-.78-.15-1.57.27-2.39l8.54-16.35Z"></path>
  </g>
  <g>
    <path class="cls-2" d="M21.62,167.22c.21-.33.33-.72.37-1.15.04-.44,0-.83-.13-1.18-.07-.18-.15-.36-.24-.53-.1-.17-.22-.32-.36-.44-.14-.12-.3-.2-.48-.26-.18-.05-.37-.04-.59.03-.19.06-.33.16-.43.28-.1.12-.16.28-.2.46-.04.19-.06.4-.06.64,0,.24,0,.51.01.8.01.42.02.87.01,1.33,0,.47-.07.91-.2,1.34-.13.43-.34.81-.63,1.16-.29.35-.71.62-1.26.81-.64.22-1.23.29-1.78.21s-1.05-.27-1.49-.57c-.45-.3-.84-.68-1.17-1.15-.33-.47-.6-.98-.8-1.53-.29-.81-.43-1.63-.43-2.48,0-.85.17-1.61.51-2.28l2.42,1.17c-.23.39-.38.85-.44,1.38-.06.53-.01,1.01.15,1.46.07.2.16.39.27.57.11.18.24.32.38.43.15.11.31.18.5.21.19.03.39,0,.61-.07.21-.07.37-.19.47-.34.11-.16.19-.35.24-.59.05-.24.07-.52.07-.84,0-.33-.02-.69-.04-1.1-.02-.4,0-.8.03-1.2.03-.4.12-.77.27-1.13.15-.35.37-.67.66-.96.29-.28.69-.51,1.19-.68.61-.21,1.19-.27,1.72-.16.53.1,1.01.31,1.44.63.43.32.8.71,1.12,1.19.32.47.57.98.76,1.51.23.64.35,1.32.36,2.07,0,.74-.12,1.44-.39,2.09l-2.42-1.11Z"></path>
    <path class="cls-2" d="M23.02,189.06l-1.42-2.49,5.75-5.85-.03-.04-8.1,1.73-1.43-2.5,8.54-8.56,1.55,2.71-5.87,5.37.02.04,7.87-1.87,1.5,2.62-5.74,5.59.03.04,7.77-2.05,1.5,2.62-11.94,2.63Z"></path>
    <path class="cls-2" d="M28.6,196.92l9.13-7.2,5.15,6.24-1.86,1.46-3.37-4.08-1.73,1.36,3.18,3.86-1.77,1.39-3.18-3.86-1.9,1.5,3.56,4.32-1.88,1.49-5.35-6.48Z"></path>
    <path class="cls-2" d="M38.54,208.21l8.07-8.33,5.95,5.52-1.64,1.69-3.89-3.6-1.53,1.58,3.68,3.41-1.56,1.61-3.68-3.41-1.67,1.73,4.12,3.81-1.66,1.72-6.18-5.73Z"></path>
    <path class="cls-2" d="M62.18,216.98c-.4.54-.85.93-1.33,1.15-.49.22-1,.32-1.53.29-.53-.03-1.07-.16-1.63-.39-.55-.23-1.09-.53-1.6-.89l-1.19-.84-2.59,3.51-2.39-1.69,6.86-9.3,3.63,2.56c.54.38,1.01.79,1.4,1.22.4.43.69.88.87,1.35.18.47.24.96.18,1.46-.07.5-.3,1.02-.69,1.56ZM59.78,215.31c.16-.22.25-.43.26-.64.01-.21-.03-.4-.13-.59-.1-.19-.24-.37-.42-.54-.18-.17-.38-.33-.59-.48l-1.05-.74-1.62,2.19,1.01.71c.22.16.45.29.68.4.23.11.46.18.69.21.23.03.44,0,.64-.08.2-.08.38-.23.54-.45Z"></path>
    <path class="cls-2" d="M80.83,232.48c-.46.42-.98.73-1.57.92-.59.19-1.22.26-1.91.22-.69-.05-1.39-.22-2.12-.53-.74-.31-1.35-.7-1.85-1.16-.5-.46-.87-.96-1.11-1.51-.24-.55-.36-1.13-.35-1.74.01-.61.16-1.24.44-1.87l2.92-6.55,2.68,1.15-2.83,6.34c-.13.29-.21.58-.25.87-.04.29-.02.57.06.85.07.27.22.53.43.76.22.23.51.43.89.59.38.16.73.24,1.05.24.32,0,.61-.07.87-.2.26-.13.48-.31.67-.54s.35-.48.48-.77l2.83-6.34,2.7,1.15-2.92,6.55c-.28.63-.65,1.16-1.11,1.58Z"></path>
    <path class="cls-2" d="M98.09,231.98c-.19.64-.47,1.15-.85,1.52-.38.37-.83.63-1.34.79-.51.15-1.06.21-1.66.18-.6-.03-1.2-.13-1.81-.3l-1.41-.39-1.2,4.16-2.84-.78,3.18-11.04,4.31,1.19c.64.18,1.22.4,1.75.67.52.27.96.6,1.29.98.34.38.56.82.68,1.31.11.5.08,1.06-.1,1.7ZM95.25,231.21c.07-.26.08-.49.02-.69-.06-.2-.17-.37-.34-.51-.16-.15-.36-.27-.58-.36-.23-.1-.47-.18-.72-.25l-1.24-.34-.75,2.6,1.19.33c.27.07.53.12.78.15.26.03.49.01.72-.04.22-.05.42-.15.58-.29.16-.14.28-.34.35-.6Z"></path>
    <path class="cls-2" d="M116.35,233.42l-.78,9.07-2.94-.24.78-9.07-3.43-.28.2-2.36,9.81.81-.2,2.36-3.43-.28Z"></path>
    <path class="cls-2" d="M132.82,242.54l-.24-4.79-4.75.22.24,4.79-2.94.14-.56-11.46,2.94-.14.21,4.34,4.75-.22-.21-4.34,2.94-.14.56,11.46-2.94.14Z"></path>
    <path class="cls-2" d="M143.01,241.5l-2.11-11.28,8.07-1.44.43,2.29-5.27.94.4,2.14,4.98-.89.41,2.18-4.98.89.44,2.34,5.58-1,.43,2.33-8.37,1.5Z"></path>
    <path class="cls-2" d="M168.93,225.71c-.35-.19-.74-.3-1.19-.32-.45-.02-.85.03-1.2.17-.18.07-.36.15-.54.26-.18.1-.32.22-.44.37-.12.14-.2.3-.25.48-.05.17-.03.37.05.58.07.18.17.32.3.41.13.09.29.15.48.18.19.03.41.04.65.04.24,0,.52-.02.82-.04.43-.03.89-.04,1.36-.06.48-.01.93.04,1.37.15.44.11.84.3,1.21.58.37.27.66.67.87,1.21.24.61.33,1.19.27,1.73-.06.54-.24,1.03-.53,1.48-.29.45-.67.84-1.14,1.18-.47.34-.98.62-1.54.83-.81.31-1.65.47-2.52.5-.87.02-1.65-.12-2.35-.42l1.12-2.4c.41.22.88.35,1.42.39.54.04,1.04-.02,1.49-.19.2-.08.39-.17.57-.29.18-.11.32-.24.43-.39.11-.15.18-.31.2-.49.03-.18,0-.38-.09-.59-.08-.2-.2-.35-.36-.45-.16-.1-.37-.17-.61-.21-.24-.04-.53-.05-.87-.04-.33.02-.71.04-1.13.07-.41.03-.82.03-1.22.01-.41-.02-.8-.09-1.16-.23-.37-.13-.7-.34-1-.61-.3-.27-.55-.65-.74-1.14-.24-.59-.31-1.15-.22-1.67.09-.52.29-1,.6-1.43.31-.43.7-.81,1.18-1.13.47-.32.98-.59,1.52-.79.64-.24,1.34-.38,2.1-.42.76-.03,1.47.07,2.15.31l-1.06,2.4Z"></path>
    <path class="cls-2" d="M187.08,226.54l-1.92-1.55-4.16,2.18.3,2.4-2.83,1.48-1.03-12.47,2.52-1.32,10,7.77-2.89,1.51ZM180.13,220.64l.53,4.19,2.7-1.42-3.24-2.77Z"></path>
    <path class="cls-2" d="M199.29,218.75l-2.39,1.68-10.59-6.68,2.69-1.89,7.15,5,.06-.04-2.57-8.21,2.65-1.86,3.02,12Z"></path>
    <path class="cls-2" d="M207.32,212.46l-7.81-8.56,2.21-1.93,7.81,8.56-2.21,1.93Z"></path>
    <path class="cls-2" d="M219.92,200.07l-8.99-1.4-.03.04,5.78,4.94-1.9,2.09-8.76-7.63,2.23-2.45,8.97,1.4.03-.04-5.76-4.93,1.9-2.09,8.76,7.63-2.22,2.44Z"></path>
    <path class="cls-2" d="M231.43,184.69c-.28.75-.68,1.52-1.19,2.29-.53.8-1.15,1.46-1.85,1.97-.7.51-1.44.87-2.21,1.06-.78.2-1.57.23-2.39.1-.82-.13-1.61-.44-2.39-.94-.79-.5-1.41-1.09-1.86-1.78-.45-.68-.74-1.41-.86-2.19-.12-.78-.08-1.57.12-2.38.2-.81.55-1.6,1.06-2.36.53-.79,1.13-1.45,1.82-1.98.69-.53,1.37-.88,2.05-1.05l.69,2.61c-.43.06-.85.23-1.28.51-.43.28-.81.66-1.13,1.15-.28.42-.47.86-.55,1.32-.09.46-.08.9.02,1.34.1.44.28.85.56,1.23.28.39.64.72,1.08,1,.45.29.91.49,1.38.6.47.11.92.12,1.37.04.45-.08.87-.27,1.28-.55.41-.28.77-.67,1.1-1.16.19-.28.35-.56.47-.84.13-.28.22-.56.27-.83l-1.79-1.14-1.27,1.91-1.91-1.22,2.75-4.12,5.2,3.32c-.08.65-.25,1.35-.53,2.1Z"></path>
    <path class="cls-2" d="M230.9,167.43c-.39.09-.75.28-1.09.57-.34.28-.59.59-.75.93-.08.17-.15.36-.21.55-.06.19-.08.38-.06.56.02.18.07.35.16.51.09.16.24.29.45.38.18.08.35.11.5.09.16-.02.32-.08.48-.19.16-.11.33-.24.5-.41.17-.17.36-.36.56-.58.3-.31.61-.63.95-.96.34-.33.7-.6,1.1-.81.4-.21.82-.35,1.28-.4.46-.05.95.05,1.48.29.61.28,1.08.64,1.41,1.07.33.43.55.91.65,1.43.1.52.1,1.06,0,1.62-.1.56-.28,1.11-.53,1.64-.37.77-.87,1.46-1.48,2.06-.61.6-1.28,1.02-2,1.27l-.88-2.5c.45-.12.88-.34,1.31-.67.42-.33.74-.71.94-1.14.09-.19.16-.39.21-.59.05-.2.06-.39.04-.57-.02-.18-.09-.34-.2-.49-.11-.15-.27-.27-.48-.37-.2-.09-.39-.12-.58-.08-.19.04-.39.12-.59.26-.21.13-.42.32-.65.56-.23.24-.49.51-.77.81-.28.29-.57.57-.88.83-.31.26-.64.47-1,.62s-.74.23-1.16.23c-.41,0-.86-.11-1.33-.33-.59-.27-1.03-.63-1.34-1.07s-.49-.92-.57-1.44c-.08-.52-.06-1.06.06-1.61.12-.56.3-1.09.54-1.59.29-.61.71-1.18,1.23-1.71.53-.53,1.12-.94,1.78-1.22l.92,2.46Z"></path>
    <path class="cls-2" d="M238.28,161.91l-7.37-2.51.95-2.66,7.37,2.51-.95,2.66ZM241.69,159.82c.21.07.39.18.54.32.15.14.27.31.35.49.08.19.12.39.13.61.01.22-.02.43-.1.64-.08.21-.18.4-.32.56-.14.16-.3.29-.49.38-.18.09-.38.15-.59.17-.21.02-.42,0-.62-.07-.2-.07-.37-.17-.53-.31-.15-.14-.27-.3-.36-.49-.09-.18-.13-.39-.14-.6-.01-.22.02-.43.1-.64.08-.21.19-.4.33-.56.15-.16.31-.3.49-.39.18-.1.38-.16.59-.17.21-.02.42,0,.61.08Z"></path>
  </g>
  <path class="cls-4" d="M45.29,60.78c.19-.38.42-.76.68-1.14-.26.36-.49.74-.68,1.14Z"></path>
  <path class="cls-4" d="M45.97,59.64c.23-.31.49-.61.77-.88.02-.05.03-.09.05-.14-.31.33-.58.67-.83,1.02Z"></path>
  <path class="cls-4" d="M46.74,58.76l.44-.39c-.15.12-.3.26-.44.39Z"></path>
  <path class="cls-2" d="M53.74,76.37s-.08-.06-.12-.09L129.08,1.67h0C81.17,1.67,40.26,27.55,18.55,65.88c-6.33,11.58-10.29,23.04-12.76,32.85-.68,2.23-1.56,5.16-1.8,15.13-.28,11.56.68,26.15,17.28,29.22,14.45,2.67,31.04-9.17,27.52-25.91-.79-3.75-2.22-4.6-3.39-7.54-1.99-5.01,3.64-4.42,6.79-6.1,9.66-5.13,11.35-19.99,1.54-27.16ZM28.06,133.76c-6.38,1.91-14.3-.05-18.41-5.69-.81-1.84-4.46-10.22-1.4-15.74,4.17-7.54,10.56-8.1,12.91-8.03.12,0,.22,0,.31.01.1,0,.2,0,.3.01.41.02.84.02,1.27.01,1.8-.03,3.48.24,5.02.76,12.68,4.31,15.8,23.93,0,28.66ZM50.53,91.43c-2.45,6.43-9.41,9.83-15.55,7.6-1.09-.4-2.07-.94-2.95-1.61-2.68-2.03-4.31-5.19-4.55-8.61-.13-1.79.13-3.66.82-5.48.88-2.31,2.34-4.23,4.14-5.64t0,0c3.21-2.51,7.48-3.39,11.41-1.96,2.43.88,4.36,2.52,5.67,4.57,1.99,3.13,2.5,7.24,1.02,11.13ZM44.64,60.83c-.12-1.14.09-2.24.55-3.23,0,0,0,0,0,0,.19-.4.41-.78.68-1.14t0,0c.24-.35.52-.69.83-1.02-.02.05-.03.09-.05.14.14-.13.29-.27.44-.39,1.06-.86,2.4-1.45,3.89-1.61,3.87-.43,7.32,2.12,7.69,5.7.37,3.58-2.47,6.84-6.35,7.27-3.87.43-7.32-2.12-7.69-5.7Z"></path>
  <path class="cls-4" d="M78.27,104.93c-.68-.33-1.37-.6-2.08-.82.78.22,1.58.49,2.38.82-.1,0-.2,0-.3,0Z"></path>
  <path class="cls-5" d="M76.17,104.1c-.93-.26-1.85-.44-2.74-.55.93.09,1.85.28,2.74.55Z"></path>
  <path class="cls-4" d="M46.8,58.62s-.03.09-.05.14c-.29.27-.54.57-.77.88.24-.35.52-.69.83-1.02Z"></path>
  <path class="cls-5" d="M47.19,58.37l-.44.39c.14-.13.29-.27.44-.39Z"></path>
  <g>
    <path class="cls-1" d="M219.48,42.44l-20.1,31.74-.07-.07-43.05,75.98-7.32-4.82,45.53-76.36L134.29,4.1s0-.04,0-.05c-.59-.54-1.81-1.31-2.03-1.83,23.46.88,44.81,9.48,59.5,18.34,17.57,10.6,27.73,21.88,27.73,21.88Z"></path>
    <path class="cls-1" d="M159.42,175.21c1.22,5-4.76,17.76-4.76,17.76l-47.9-29.73s10.04-11.7,14.49-11.88c4.46-.17,16.1,6.99,17.95,6.53,1.84-.47,7.69-9.51,7.69-9.51l6.54,4.02s-6.44,8.86-5.94,10.11,10.7,7.69,11.92,12.69Z"></path>
    <path class="cls-1" d="M104.85,165.4l47.78,30.82-8.23,18.64c-1.82.07-10.09,1.39-11.93,1.36-1.68-.02-3.36-.1-5.03-.21l13.89-16.34-21.06,15.62c-15.31-2.1-29.44-7.62-41.52-15.71l29.18-17.7c-.92.41-15.53,6.96-21.36,9.48-6.01,2.6-14.58,3.25-14.58,3.25-5.96-4.79-11.3-10.25-15.88-16.27,6.14.95,9.27,4.71,21.97,2.09,12.69-2.61,26.77-15.03,26.77-15.03Z"></path>
    <path class="cls-1" d="M78.56,101.41c-2.19-.3-4.44-.06-6.55.8-6.61,2.7-9.3,10.53-6.01,17.48,3.3,6.95,11.32,10.39,17.93,7.68,6.61-2.71,9.3-10.53,6.01-17.48-1.27-2.67-3.24-4.83-5.56-6.32-.14-.17-.27-.35,0-.43,7.07,4.12,11.39,9.78,10.38,17.91-1.62,13.16-17.65,19.08-28.71,10.49-14.73-11.44-3.7-32.76,12.5-30.14Z"></path>
    <path class="cls-1" d="M94.97,132.57c-1.22,2-2.48,3.83-2.34,6.27.24,4.45,4.13,7.18,8.54,6.41,8.68-1.5,7.11-14.87-2.75-13.59-.94.13-1.89.51-2.78.67-.13.02-.42.12-.38-.1,4.28-2.46,8.63-3.01,12.84.03,6.81,4.9,5.56,15.17-2.31,18.37-11.56,4.69-20.89-10.81-10.82-18.05Z"></path>
    <path class="cls-1" d="M66.4,166.75c-9.7,1.73,11.11-25.68,9.88-11.3-.87-2.65-1.55-5.21-3.87-7.08-4.21-3.42-9.7-2.38-12.41,1.96-5.36,8.53,7.97,18.1,14.44,8.76.61-.89,1-2,1.54-2.88.08-.13.22-.45.39-.23-1.08,5.6-3.95,9.71-9.96,10.78Z"></path>
    <ellipse class="cls-1" cx="236.97" cy="134.58" rx="6.05" ry="6.19" transform="translate(93.45 366.24) rotate(-87.81)"></ellipse>
  </g>
</svg>